<svg width="55" height="54" viewBox="0 0 55 54" fill="none" xmlns="http://www.w3.org/2000/svg">
<g clip-path="url(#clip0)">
<g clip-path="url(#clip1)">
<path d="M27.7783 4.35547C21.5751 4.35547 16.5283 9.40222 16.5283 15.6055C16.5283 21.8087 21.5751 26.8555 27.7783 26.8555C33.9816 26.8555 39.0283 21.8087 39.0283 15.6055C39.0283 9.40222 33.9816 4.35547 27.7783 4.35547ZM27.7783 22.3555C24.0568 22.3555 21.0283 19.327 21.0283 15.6055C21.0283 11.884 24.0568 8.85547 27.7783 8.85547C31.4998 8.85547 34.5283 11.884 34.5283 15.6055C34.5283 19.327 31.4998 22.3555 27.7783 22.3555ZM48.0283 47.1055V44.8555C48.0283 36.1727 40.9611 29.1055 32.2783 29.1055H23.2783C14.5933 29.1055 7.52832 36.1727 7.52832 44.8555V47.1055H12.0283V44.8555C12.0283 38.6522 17.0751 33.6055 23.2783 33.6055H32.2783C38.4816 33.6055 43.5283 38.6522 43.5283 44.8555V47.1055H48.0283Z" fill="#3F4449"/>
</g>
</g>
<defs>
<clipPath id="clip0">
<rect width="54" height="54" fill="white" transform="translate(0.75)"/>
</clipPath>
<clipPath id="clip1">
<rect width="54" height="54" fill="white" transform="translate(0.75)"/>
</clipPath>
</defs>
</svg>
