<svg width="22" height="22" viewBox="0 0 22 22" fill="none" xmlns="http://www.w3.org/2000/svg">
<path d="M11 0C7.7835 0 5.16667 2.59716 5.16667 5.78947C5.16667 8.98179 7.7835 11.5789 11 11.5789C14.2165 11.5789 16.8333 8.98179 16.8333 5.78947C16.8333 2.59716 14.2165 0 11 0ZM11 9.26316C9.07033 9.26316 7.5 7.70463 7.5 5.78947C7.5 3.87432 9.07033 2.31579 11 2.31579C12.9297 2.31579 14.5 3.87432 14.5 5.78947C14.5 7.70463 12.9297 9.26316 11 9.26316ZM21.5 22V20.8421C21.5 16.3738 17.8355 12.7368 13.3333 12.7368H8.66667C4.16333 12.7368 0.5 16.3738 0.5 20.8421V22H2.83333V20.8421C2.83333 17.6498 5.45017 15.0526 8.66667 15.0526H13.3333C16.5498 15.0526 19.1667 17.6498 19.1667 20.8421V22H21.5Z" fill="#3F4449"/>
</svg>
