<svg width="46" height="46" viewBox="0 0 46 46" fill="none" xmlns="http://www.w3.org/2000/svg">
<path d="M19.4941 38.9862C23.9347 38.9862 28.0169 37.4588 31.2739 34.9259L41.8486 45.5L45.25 42.0988L34.6754 31.5247C37.2108 28.2654 38.7383 24.1835 38.7383 19.7431C38.7383 9.13294 30.1049 0.5 19.4941 0.5C8.8834 0.5 0.25 9.13294 0.25 19.7431C0.25 30.3533 8.8834 38.9862 19.4941 38.9862ZM19.4941 5.31078C27.454 5.31078 33.9272 11.7837 33.9272 19.7431C33.9272 27.7025 27.454 34.1754 19.4941 34.1754C11.5343 34.1754 5.06103 27.7025 5.06103 19.7431C5.06103 11.7837 11.5343 5.31078 19.4941 5.31078Z" fill="#3F4449"/>
</svg>
